<svg width="80" height="80" viewBox="0 0 80 80" fill="none" xmlns="http://www.w3.org/2000/svg">
<rect width="80" height="80" rx="40" fill="white" fill-opacity="0.1"/>
<path fill-rule="evenodd" clip-rule="evenodd" d="M40 24.5C40.8284 24.5 41.5 25.1716 41.5 26V50.3787L50.9393 40.9393C51.5251 40.3536 52.4749 40.3536 53.0607 40.9393C53.6464 41.5251 53.6464 42.4749 53.0607 43.0607L41.0607 55.0607C40.7794 55.342 40.3978 55.5 40 55.5C39.6022 55.5 39.2206 55.342 38.9393 55.0607L26.9393 43.0607C26.3536 42.4749 26.3536 41.5251 26.9393 40.9393C27.5251 40.3536 28.4749 40.3536 29.0607 40.9393L38.5 50.3787V26C38.5 25.1716 39.1716 24.5 40 24.5Z" fill="white"/>
<rect x="1" y="1" width="78" height="78" rx="39" stroke="white" stroke-opacity="0.1" stroke-width="2"/>
</svg>
