<svg width="94" height="30" viewBox="0 0 94 30" fill="none" xmlns="http://www.w3.org/2000/svg">
<g clip-path="url(#clip0_321_323)">
<path d="M74.7094 4.99836C76.1376 4.99836 77.2955 3.88283 77.2955 2.50675C77.2955 1.13067 76.1376 0.0151367 74.7094 0.0151367C73.2811 0.0151367 72.1233 1.13067 72.1233 2.50675C72.1233 3.88283 73.2811 4.99836 74.7094 4.99836Z" fill="#6B5AF9"/>
<path d="M82.4702 7.45361H87.2284V10.2012H82.4702V7.45361Z" fill="#2A2367"/>
<path d="M89.2419 7.45361H94.0001V10.2012H89.2419V7.45361Z" fill="#2A2367"/>
<path fill-rule="evenodd" clip-rule="evenodd" d="M89.9627 21.666V18.8345H86.5364V21.666H86.5341C86.5341 24.3321 84.2904 26.4934 81.5233 26.4934C78.7561 26.4934 76.5131 24.3321 76.5131 21.666H73.0862C73.0862 26.1555 76.8638 29.7949 81.5233 29.7949C86.1833 29.7949 89.9604 26.1555 89.9604 21.666H89.9627Z" fill="url(#paint0_linear_321_323)"/>
<path fill-rule="evenodd" clip-rule="evenodd" d="M85.9077 7.45361C85.9077 7.4595 85.9077 7.46539 85.9077 7.47127V14.1C85.9077 15.2527 86.8776 16.1872 88.0738 16.1872H88.3922C89.5884 16.1872 90.5583 15.2527 90.5583 14.1V13.512C90.5589 13.4833 90.5589 13.4544 90.5589 13.4253V7.45361H93.9999V13.914C93.9999 15.6142 93.544 16.8964 92.6322 17.7606C91.7204 18.6248 90.4855 19.0569 88.9268 19.0569C88.9104 19.0569 88.8939 19.0569 88.8775 19.0567C88.8605 19.0566 88.8428 19.0564 88.8258 19.0561V19.0569H87.6443V19.0561C87.6108 19.0567 87.5773 19.0569 87.5433 19.0569C85.9846 19.0569 84.7497 18.6248 83.8379 17.7606C82.9261 16.8964 82.4702 15.6142 82.4702 13.914V7.45361H85.9077Z" fill="#2A2367"/>
<path d="M11.3375 11.3055C12.2197 11.5747 12.9108 12.0281 13.4108 12.6657C13.9108 13.289 14.1607 14.0612 14.1607 14.9821C14.1607 16.2855 13.6314 17.2914 12.5726 17.9998C11.5286 18.694 9.99931 19.0411 7.98471 19.0411H0V4.16504H7.54356C9.42579 4.16504 10.8669 4.51215 11.8668 5.20636C12.8815 5.9006 13.3888 6.84271 13.3888 8.03281C13.3888 8.75536 13.2049 9.40002 12.8373 9.96668C12.4844 10.5334 11.9845 10.9797 11.3375 11.3055ZM3.55122 6.7577V10.2642H7.10246C7.98471 10.2642 8.65382 10.1154 9.10966 9.81792C9.5655 9.52041 9.79345 9.08122 9.79345 8.50036C9.79345 7.91949 9.5655 7.48737 9.10966 7.20402C8.65382 6.90651 7.98471 6.7577 7.10246 6.7577H3.55122ZM7.72004 16.4484C8.66116 16.4484 9.36698 16.2996 9.83757 16.0021C10.3228 15.7046 10.5654 15.2441 10.5654 14.6208C10.5654 13.3882 9.61696 12.7719 7.72004 12.7719H3.55122V16.4484H7.72004Z" fill="#2A2367"/>
<path d="M27.8065 13.3666C27.8065 13.4091 27.7845 13.7067 27.7404 14.2592H18.7631C18.9248 14.9676 19.3072 15.5272 19.91 15.9381C20.5129 16.3489 21.2629 16.5544 22.1599 16.5544C22.7775 16.5544 23.3215 16.4694 23.7921 16.2993C24.2774 16.1151 24.7259 15.8318 25.1376 15.4493L26.9684 17.3619C25.8508 18.5945 24.2185 19.2108 22.0716 19.2108C20.7335 19.2108 19.5498 18.9629 18.5204 18.467C17.4911 17.957 16.697 17.2557 16.1382 16.3631C15.5795 15.4705 15.3 14.4576 15.3 13.3241C15.3 12.2049 15.5721 11.199 16.1162 10.3064C16.675 9.39973 17.4323 8.69841 18.3881 8.20256C19.3586 7.6925 20.4394 7.4375 21.6305 7.4375C22.7922 7.4375 23.8436 7.67835 24.7847 8.16005C25.7258 8.64175 26.461 9.33593 26.9904 10.2427C27.5345 11.1353 27.8065 12.1765 27.8065 13.3666ZM21.6526 9.94516C20.8732 9.94516 20.2188 10.1577 19.6895 10.5827C19.1601 11.0077 18.8366 11.5886 18.7189 12.3253H24.5641C24.4465 11.6027 24.123 11.029 23.5936 10.604C23.0642 10.1647 22.4172 9.94516 21.6526 9.94516Z" fill="#2A2367"/>
<path d="M29.6562 3.27246H33.0972V19.041H29.6562V3.27246Z" fill="#2A2367"/>
<path d="M42.8636 7.43777C43.9664 7.43777 44.9664 7.6857 45.8634 8.18155C46.7751 8.66325 47.4883 9.35036 48.0029 10.2429C48.5176 11.1213 48.775 12.1485 48.775 13.3244C48.775 14.5003 48.5176 15.5345 48.0029 16.4271C47.4883 17.3055 46.7751 17.9927 45.8634 18.4885C44.9664 18.9702 43.9664 19.2111 42.8636 19.2111C41.2313 19.2111 39.9888 18.7152 39.1359 17.7235V19.041H35.8494V3.27246H39.2903V8.81908C40.1579 7.89819 41.349 7.43777 42.8636 7.43777ZM42.268 16.4909C43.1503 16.4909 43.8709 16.2075 44.4296 15.6408C45.0031 15.0599 45.2899 14.2878 45.2899 13.3244C45.2899 12.361 45.0031 11.5959 44.4296 11.0292C43.8709 10.4484 43.1503 10.1579 42.268 10.1579C41.3857 10.1579 40.6579 10.4484 40.0844 11.0292C39.5256 11.5959 39.2462 12.361 39.2462 13.3244C39.2462 14.2878 39.5256 15.0599 40.0844 15.6408C40.6579 16.2075 41.3857 16.4909 42.268 16.4909Z" fill="#2A2367"/>
<path d="M62.2616 13.3666C62.2616 13.4091 62.2393 13.7067 62.1952 14.2592H53.2181C53.3798 14.9676 53.7622 15.5272 54.3651 15.9381C54.968 16.3489 55.7179 16.5544 56.6149 16.5544C57.2325 16.5544 57.7766 16.4694 58.2471 16.2993C58.7324 16.1151 59.1807 15.8318 59.5926 15.4493L61.4232 17.3619C60.3058 18.5945 58.6736 19.2108 56.5267 19.2108C55.1886 19.2108 54.0048 18.9629 52.9754 18.467C51.9461 17.957 51.1521 17.2557 50.5933 16.3631C50.0345 15.4705 49.7551 14.4576 49.7551 13.3241C49.7551 12.2049 50.0271 11.199 50.5712 10.3064C51.13 9.39973 51.8873 8.69841 52.8431 8.20256C53.8136 7.6925 54.8945 7.4375 56.0856 7.4375C57.2472 7.4375 58.2986 7.67835 59.2395 8.16005C60.1807 8.64175 60.9162 9.33593 61.4456 10.2427C61.9896 11.1353 62.2616 12.1765 62.2616 13.3666ZM56.1076 9.94516C55.3282 9.94516 54.6739 10.1577 54.1445 10.5827C53.6151 11.0077 53.2916 11.5886 53.174 12.3253H59.0192C58.9017 11.6027 58.578 11.029 58.0486 10.604C57.5193 10.1647 56.8722 9.94516 56.1076 9.94516Z" fill="#2A2367"/>
<path d="M67.3979 9.11637C67.8092 8.5638 68.3608 8.14584 69.0517 7.86248C69.7579 7.57918 70.5663 7.4375 71.4781 7.4375V10.4977C71.0956 10.4694 70.8383 10.4552 70.7061 10.4552C69.7209 10.4552 68.9489 10.7244 68.3902 11.2627C67.8315 11.7869 67.5518 12.5803 67.5518 13.6429V19.0408H64.1108V7.60748H67.3979V9.11637Z" fill="#2A2367"/>
<path d="M76.3697 9.11637C76.7816 8.5638 77.3326 8.14584 78.0241 7.86248C78.7297 7.57918 79.5387 7.4375 80.4505 7.4375V10.4977C80.068 10.4694 79.8107 10.4552 79.6785 10.4552C78.6933 10.4552 77.9213 10.7244 77.362 11.2627C76.8033 11.7869 76.5242 12.5803 76.5242 13.6429V19.0408H73.0833V7.60748H76.3697V9.11637Z" fill="#2A2367"/>
</g>
<defs>
<linearGradient id="paint0_linear_321_323" x1="87.6456" y1="20.9504" x2="77.5472" y2="30.1678" gradientUnits="userSpaceOnUse">
<stop stop-color="#2A2367"/>
<stop offset="1" stop-color="#6B5AF9"/>
</linearGradient>
<clipPath id="clip0_321_323">
<rect width="94" height="30" fill="white"/>
</clipPath>
</defs>
</svg>
