<svg width="100" height="100" viewBox="0 0 100 100" fill="none" xmlns="http://www.w3.org/2000/svg">
<rect width="100" height="100" rx="50" fill="#4FACE2"/>
<path d="M64.1364 37.5207L50.3864 67.5207C50.2714 67.772 50.0763 67.978 49.8316 68.1067C49.587 68.2353 49.3066 68.2792 49.0344 68.2316C48.7622 68.184 48.5134 68.0474 48.327 67.8434C48.1406 67.6393 48.027 67.3792 48.0042 67.1038L46.8417 53.1579L32.8958 51.9954C32.6203 51.9725 32.3603 51.859 32.1562 51.6726C31.9521 51.4862 31.8156 51.2374 31.768 50.9652C31.7203 50.6929 31.7643 50.4126 31.8929 50.1679C32.0215 49.9233 32.2276 49.7282 32.4789 49.6132L62.4789 35.8632C62.7108 35.7569 62.9697 35.7241 63.2208 35.7692C63.4719 35.8144 63.7032 35.9352 63.8836 36.1156C64.064 36.296 64.1848 36.5273 64.23 36.7784C64.2751 37.0295 64.2423 37.2884 64.136 37.5203L64.1364 37.5207Z" fill="white"/>
</svg>
