<svg width="36" height="36" viewBox="0 0 36 36" fill="none" xmlns="http://www.w3.org/2000/svg">
<g clip-path="url(#clip0_3_3329)">
<path d="M35.7637 10.4618C35.7637 7.29773 33.4363 4.75242 30.5606 4.75242C26.6653 4.57031 22.6926 4.5 18.6328 4.5H17.3671C13.3171 4.5 9.33744 4.57031 5.44213 4.75312C2.57338 4.75312 0.246033 7.3125 0.246033 10.4766C0.0702518 12.979 -0.00427946 15.4821 -6.07053e-05 17.9852C-0.00709196 20.4884 0.0725956 22.9938 0.239002 25.5016C0.239002 28.6657 2.56635 31.2321 5.4351 31.2321C9.52728 31.422 13.7249 31.5063 17.9929 31.4993C22.2679 31.5134 26.4538 31.4243 30.5507 31.2321C33.4265 31.2321 35.7538 28.6657 35.7538 25.5016C35.9226 22.9915 35.9999 20.4884 35.9929 17.9782C36.0088 15.4751 35.9324 12.9696 35.7637 10.4618ZM14.5546 24.8829V11.0665L24.7499 17.9712L14.5546 24.8829Z" fill="#50B08B"/>
</g>
<defs>
<clipPath id="clip0_3_3329">
<rect width="36" height="36" fill="white"/>
</clipPath>
</defs>
</svg>
