<svg width="60" height="60" viewBox="0 0 60 60" fill="none" xmlns="http://www.w3.org/2000/svg">
<rect width="60" height="60" rx="30" fill="#50B08B"/>
<path fill-rule="evenodd" clip-rule="evenodd" d="M27.5 20.3C23.5235 20.3 20.3 23.5236 20.3 27.5C20.3 31.4765 23.5235 34.7 27.5 34.7C31.4764 34.7 34.7 31.4765 34.7 27.5C34.7 23.5236 31.4764 20.3 27.5 20.3ZM17.7 27.5C17.7 22.0876 22.0876 17.7 27.5 17.7C32.9123 17.7 37.2999 22.0876 37.2999 27.5C37.2999 32.9124 32.9123 37.3 27.5 37.3C22.0876 37.3 17.7 32.9124 17.7 27.5Z" fill="white"/>
<path fill-rule="evenodd" clip-rule="evenodd" d="M33.0807 33.0808C33.5884 32.5731 34.4115 32.5731 34.9192 33.0808L41.9192 40.0808C42.4269 40.5885 42.4269 41.4116 41.9192 41.9193C41.4115 42.4269 40.5884 42.4269 40.0807 41.9193L33.0807 34.9193C32.573 34.4116 32.573 33.5885 33.0807 33.0808Z" fill="white"/>
</svg>
